<?xml version="1.0" encoding="UTF-8"?>
<svg width="375pt" height="375pt" version="1.2" viewBox="0 0 375 375" xmlns="http://www.w3.org/2000/svg">
<defs>
<clipPath id="t">
<path d="m83 46h251v291h-251z"/>
</clipPath>
<clipPath id="i">
<path d="m9.4414 116.39 273.02-152.55 136.09 243.56-273.02 152.55z"/>
</clipPath>
<clipPath id="g">
<path d="m282.75-36.324-273.02 152.55 136.09 243.56 273.02-152.55z"/>
</clipPath>
<clipPath id="f">
<path d="m282.75-36.324-272.74 152.39 136.13 243.63 272.74-152.39z"/>
</clipPath>
<clipPath id="e">
<path d="m80 42h256v297h-256z"/>
</clipPath>
<clipPath id="d">
<path d="m9.4414 116.39 273.02-152.55 136.09 243.56-273.02 152.55z"/>
</clipPath>
<clipPath id="c">
<path d="m282.75-36.324-273.02 152.55 136.09 243.56 273.02-152.55z"/>
</clipPath>
<clipPath id="b">
<path d="m282.75-36.324-272.74 152.39 136.13 243.63 272.74-152.39z"/>
</clipPath>
<clipPath id="a">
<path d="m151 162h17v29h-17z"/>
</clipPath>
<clipPath id="s">
<path d="m9.4414 116.39 273.02-152.55 136.09 243.56-273.02 152.55z"/>
</clipPath>
<clipPath id="r">
<path d="m282.75-36.324-273.02 152.55 136.09 243.56 273.02-152.55z"/>
</clipPath>
<clipPath id="q">
<path d="m282.75-36.324-272.74 152.39 136.13 243.63 272.74-152.39z"/>
</clipPath>
<clipPath id="p">
<path d="m234 142h12v21h-12z"/>
</clipPath>
<clipPath id="o">
<path d="m9.4414 116.39 273.02-152.55 136.09 243.56-273.02 152.55z"/>
</clipPath>
<clipPath id="n">
<path d="m282.75-36.324-273.02 152.55 136.09 243.56 273.02-152.55z"/>
</clipPath>
<clipPath id="m">
<path d="m282.75-36.324-272.74 152.39 136.13 243.63 272.74-152.39z"/>
</clipPath>
<clipPath id="l">
<path d="m204 215h28v14h-28z"/>
</clipPath>
<clipPath id="k">
<path d="m9.4414 116.39 273.02-152.55 136.09 243.56-273.02 152.55z"/>
</clipPath>
<clipPath id="j">
<path d="m282.75-36.324-273.02 152.55 136.09 243.56 273.02-152.55z"/>
</clipPath>
<clipPath id="h">
<path d="m282.75-36.324-272.74 152.39 136.13 243.63 272.74-152.39z"/>
</clipPath>
</defs>
<g>
<g clip-path="url(#t)">
<g clip-path="url(#i)">
<g clip-path="url(#g)">
<g clip-path="url(#f)">
<path d="m137.77 296.84c1.3594-9.5781 7.8789-44.613 5.5195-59.508l8.5664-37.793s-7.6602-1.5547-12.027-10.742c-3.9727-8.3242 0.19531-22.266 0.98047-24.727-24.539 10.312-44.363 17.203-48.543 14.691-4.668-2.8086-30.039-88.512 39.234-120.48 74.266-34.27 110.11 16.91 121.85 39.82 3.8047-2.1367 75.328-42.18 79.598-34.547 2.0273 3.6328-51.602 31.75-75.277 44.074 0.14453 0.375 0.23438 0.62891 0.23438 0.62891 0.18359 0.019532-1.0117 0.71875-3.3203 1.9648 5.4766 7.7422 11.199 17.156 11.828 23.582 1.1992 12.625-2.8555 23.191 6.6367 38.559 9.4258 15.398 11.957 19.598 12.355 24.738 0.51562 6.6953-13.023 9.3086-18.559 16.793-5.5352 7.5352-9.4492 35.363-22.996 43.477-9.1211 5.4648-28.023 3.3555-39.129 1.6992-2.6367 4.2969-2.4062 13.555-5.8672 29.336-4.2188 19.211-2.9766 20.887 1.4648 26.691 5.1875 6.7695 6.8867 6.7539 7.3672 6.4688-7.168 7.2422-55.355 34.707-82.977-10.195-0.007813-0.003907 9.3867-1.1602 13.059-14.527zm49.625-131c1.0859-6.8398 4.0547-16.836 7.0352-25.902-8.6016 4.0664-17.496 8.1875-26.301 12.176 7.9922 7.8359 5.1914 16.453 8.0508 24.539 3.1719 8.9414 8.7148 4.7109 11.215-10.812z" fill="#fff"/>
</g>
</g>
</g>
</g>
<g clip-path="url(#e)">
<g clip-path="url(#d)">
<g clip-path="url(#c)">
<g clip-path="url(#b)">
<path d="m122.55 310.35c0.33594-0.73047 1.0352-1.2344 1.8281-1.3477 0.03125-0.007812 7.9844-1.5234 11.027-12.504 0.21875-1.5586 0.57812-3.793 1.0156-6.5 2.0859-13.043 6.4297-40.188 4.5078-52.293-0.019532-0.125 0.011718-0.25391 0.011718-0.37891-0.14062-0.10547-0.30859-0.14453-0.42187-0.28125-2.4336-2.7773-5.4062-5.5508-8.8516-8.7617-6.8164-6.3594-15.305-14.281-25.082-27.281-3.8945-5.1836-8.0859-12.844-11.734-20.156-2.0078 0.10938-3.5469-0.082031-4.4961-0.65625-2.457-1.4766-5.7227-10.672-7.7227-22.609-0.007813-0.023437-0.023438-0.039063-0.035157-0.058594-0.027343-0.097656-0.003906-0.19531-0.023437-0.29297-1.1367-6.8867-1.8555-14.648-1.7461-22.371 0.36328-25.535 8.9883-60.902 48.977-79.367 2.4531-1.1328 4.8594-2.0625 7.2656-3.0273-0.42969-1.1016-0.83594-2.7617-0.24609-4.6367 0.44922-1.418 1.6406-3.3594 4.7969-4.668 3.1133-1.2852 5.2461-0.66406 6.4844 0.078125 1.8984 1.1406 2.6836 3.0859 3.0156 4.3438 20.742-5.7344 39.816-4.9727 56.918 2.3164 24.543 10.465 38.98 31.66 46.043 45.051 15.137-8.4375 68.023-37.414 78.359-34.5 1.4727 0.41797 2.2188 1.2812 2.5859 1.9414 0.31641 0.5625 0.41016 1.6719 0.22656 2.2891-0.73828 2.4648-7.0312 7.3672-29.645 20-11.395 6.3672-26.973 14.723-48.016 25.684 4.2852 5.6172 6.9922 10.551 8.7695 15.059 1.3711 3.1289 2.1953 5.8633 2.418 8.1719 0.73828 3.6094 0.26953 7.1602 0.19531 10.535-0.19531 8.4961-0.37109 16.523 6.0977 26.992 9.4062 15.375 12.246 20.016 12.699 25.805 0.35938 4.5938-3.5469 7.5156-7.8633 10.152-0.61328 0.375-1.2422 0.75-1.8672 1.1211-3.5156 2.0859-7.1562 4.25-9.2773 7.1211-1.6875 2.2969-3.4258 7.3477-5.2617 12.699-3.918 11.426-8.7969 25.637-18.434 31.41-0.15234 0.089844-0.30469 0.17969-0.45703 0.26562-0.26172 0.14453-0.58203 0.25391-0.85938 0.38672-0.67969 0.33594-1.3477 0.67578-2.1133 0.95703-0.45703 0.16797-0.98828 0.28906-1.4805 0.4375-0.67187 0.20703-1.3164 0.42969-2.0469 0.59766-0.5625 0.125-1.2031 0.21875-1.8008 0.32031-0.74609 0.14062-1.4648 0.28906-2.2695 0.39453-0.66406 0.085938-1.4102 0.125-2.1133 0.1875-0.82812 0.074219-1.6289 0.16016-2.5117 0.20703-0.77344 0.035156-1.6211 0.027343-2.4336 0.046874-0.90625 0.011719-1.7852 0.039063-2.7422 0.023438-0.89453-0.015625-1.8594-0.070312-2.8008-0.10938-0.96875-0.039063-1.9141-0.070313-2.9375-0.13672-1.0195-0.070312-2.1133-0.17969-3.1836-0.27734-1.0352-0.09375-2.0469-0.17578-3.125-0.29297-1.1406-0.125-2.3555-0.28125-3.5469-0.4375-0.85547-0.10938-1.6562-0.19141-2.5352-0.3125-0.81641 2.207-1.3008 5.625-1.9375 10.031-0.64844 4.5664-1.4648 10.25-2.9961 17.211-3.9922 18.164-3.0273 19.422 1.0273 24.727 2.9336 3.8203 4.457 5.0703 5.0625 5.4727 0.65625-0.16406 1.3594-0.085938 1.9453 0.32812 0.97656 0.6875 1.3008 1.9844 0.75781 3.043-0.11719 0.23047-0.32812 0.47656-0.5625 0.70312-0.015624 0.011719-0.019531 0.03125-0.039062 0.050781-1.7461 1.7695-5.0664 4.0977-8.8867 6.2344-8.3828 4.6836-51.527 25.875-77.816-16.859-0.41797-0.69531-0.45312-1.5469-0.11719-2.2773zm24.84-256.54c-0.46484 0.15234-0.92969 0.29688-1.3984 0.45703 2.2891 9.6016 15.824 65.168 28.324 91.488 6.4492-2.9492 12.906-5.9531 19.227-8.9258 0.082031-0.050781 0.14453-0.13281 0.22656-0.17969 12.801-6.0547 24.715-11.852 34.637-16.773-26.902-56.945-74.672-65.215-81.016-66.066zm-54.59 122.29c1.9727 1.0703 8.5586-0.48047 17.965-3.7148-1.0977-2.8477-2.082-5.6289-2.9688-8.3711-6.2617 2.0156-12.719 3.6953-17.977 4.2383 1.2305 4.3555 2.4023 7.1875 2.9805 7.8477zm31.543-33.953c3.0117-1.2383 4.9414-0.44141 6.0352 0.44922 3.2539 2.6523 2.375 8.9414 2.0273 10.805-0.125 0.69922-0.5625 1.3008-1.1758 1.6445-0.0625 0.035156-0.12891 0.066406-0.19531 0.09375-0.62891 0.28125-8.918 3.9453-18.711 7.3555 0.875 2.7109 1.8438 5.4648 2.9375 8.2852 7.2344-2.6406 15.738-6.0547 24.984-9.9648 0.011719-0.007812 0.023438-0.023438 0.039062-0.03125 3.3555-1.4141 6.9102-2.9453 10.586-4.5508 1.4883-0.82031 3.0078-1.543 4.6758-2.0547 1.918-0.84766 3.8555-1.707 5.8359-2.5938 0.37891-0.38672 0.78906-0.63672 1.2969-0.58203 1.2773-0.57031 2.543-1.1328 3.8477-1.7266 0.015625-0.011719 0.039062 0 0.058594-0.011719 1.125-0.50781 2.2539-1.0234 3.3828-1.5312-12.559-26.48-25.664-79.953-28.453-91.645-9.7031 6.7383-44.426 35.301-33.18 91.301 6.9883-2.125 13.43-4.1797 16.008-5.2422zm-37.438-22.586c-2 12.465-1.457 24.496-0.074218 34.25 3.5039-1.0234 10.098-2.9531 16.914-5.0078-9.0312-43.973 9.0938-72.055 23.281-86.531-0.5 0.26953-1.043 0.50781-1.5273 0.77734-21.531 12.027-34.516 31.039-38.594 56.512zm58.758-72.219c-0.57422-0.34766-1.6328 0.003906-2.2148 0.24219-0.80078 0.33984-1.8008 0.89062-2.0664 1.6875-0.13672 0.40234-0.074219 0.83203 0.023437 1.1875 0.11719-0.066406 0.19922-0.11328 0.21875-0.125 0.003906-0.003906 0.007813-0.007812 0.007813-0.007812 0.54688-0.30078 1.1562-0.35547 1.7148-0.21484 0.76953-0.26562 1.5234-0.49609 2.2852-0.74219 0.28516-0.17969 0.59375-0.28906 0.9375-0.33984-0.085938-0.45312-0.37109-1.3672-0.90625-1.6875zm60.52 6.957c-14.703-6.2695-31.082-7.2539-48.84-3.2305 17.465 4.7734 53.238 19.98 75.336 66.703 7.4102-3.6992 13.418-6.7656 17.445-8.875 0.050782-0.027343 0.074219-0.074219 0.12891-0.097656l3.0391-1.582c0.32031-0.17969 0.69922-0.38281 0.99609-0.54688-3.168-7.7891-17.609-39.367-48.105-52.371zm122.59 10.715c-9.9766 1.5508-43.215 17.77-72.539 34.215 1.0273 2.1641 1.7812 3.9258 2.3125 5.2383 47.113-24.605 64.77-35.184 70.227-39.453zm-130.61 260.29c2.1055-1.1797 3.8281-2.2891 5.1602-3.2422-1.4023-1.2305-3.0078-3.0547-4.8945-5.5156-5.0508-6.5977-6.1953-9.1328-1.9102-28.664 1.4922-6.7812 2.293-12.371 2.9336-16.859 0.89453-6.2188 1.4844-10.328 3.2109-13.172 0.007813-0.007812 0.007813-0.027343 0.019532-0.035156l0.007812-0.007812c0.21875-0.35156 0.53906-0.60547 0.89844-0.80078 0.089844-0.050781 0.16406-0.085937 0.25391-0.12109 0.38281-0.15234 0.78516-0.24219 1.2148-0.17969 2.3398 0.34375 4.582 0.64062 6.7266 0.88672 0.22266 0.03125 0.42188 0.039062 0.64062 0.0625 1.8633 0.21094 3.6758 0.38281 5.3945 0.51562 11.516 0.85547 19.77-0.066406 24.746-2.832 0.015625-0.007813 0.03125-0.015625 0.042969-0.023438 8.1484-4.8828 12.711-18.18 16.379-28.871 2.043-5.9531 3.8086-11.094 5.9297-13.98 2.707-3.6523 6.9453-6.168 10.684-8.3867 0.48828-0.29297 0.97266-0.57812 1.4453-0.86328 3.3203-2.0039 6.125-3.9336 5.9688-5.9375-0.34766-4.4727-2.5859-8.2773-12.008-23.668-7.207-11.672-7.0039-20.789-6.8047-29.609 0.074219-3.3867 0.14844-6.5859-0.17188-9.9727-0.45312-4.6523-4.1445-12.039-10.688-21.434-1.6172 0.85547-3.6406 1.9062-5.9766 3.1055 2.2031 1.4766 3.5273 2.8672 3.6406 2.9961 0.90234 0.96875 0.84766 2.4805-0.11719 3.3711-0.14453 0.13672-0.29688 0.25-0.46094 0.33984-0.93359 0.52344-2.1445 0.36328-2.9062-0.46484-0.03125-0.03125-2.0625-2.1562-5.2383-3.6562-11.25 5.6992-27.512 13.711-45.547 22.262-3.6484 11.074-5.957 19.531-6.9062 25.238-0.023437 0.15234-0.058593 0.29297-0.085937 0.44141-0.082032 0.5-0.1875 1.0703-0.28906 1.6211-0.058593 0.30078-0.10547 0.58594-0.16406 0.89062-0.011719 0.058594-0.027344 0.125-0.035157 0.17969-0.33203 1.6445-0.73047 3.3242-1.2148 4.9414-0.30078 4.1992-0.9375 7.9961-3.2734 9.2969-0.46484 0.25781-1.4023 0.16797-2.457-0.074219-0.28906 0.15234-0.58984 0.19141-0.88672 0.27734-0.30078 0.089844-0.57812 0.26172-0.90234 0.28906-0.58984 0.050781-1.2617-0.023438-1.957-0.27344-0.015625-0.003906-0.027344 0-0.042968-0.003906-0.015626-0.007813-0.035157-0.023438-0.050782-0.03125-0.42969-0.16406-0.86328-0.39453-1.3047-0.73828-0.03125-0.023437-0.050781-0.054687-0.082031-0.074218-0.32031-0.26562-0.64453-0.59766-0.96094-0.98047-0.12891-0.15234-0.25391-0.3125-0.375-0.48438-0.21875-0.30469-0.42969-0.65234-0.64453-1.0273-0.10547-0.19141-0.21875-0.375-0.32422-0.58203-0.125-0.25391-0.24609-0.54297-0.36328-0.82422-0.53906-0.85156-1.0312-1.8242-1.4648-3.043-1.0859-3.0742-1.4062-6.1406-1.7148-9.1055-0.34375-3.3438-0.72266-6.4375-2.0664-9.3945-0.14062-0.23047-0.29297-0.46484-0.45312-0.69141-0.12891-0.1875-0.24609-0.375-0.38672-0.55859-0.30078-0.39063-0.64453-0.77734-0.99609-1.168-0.10156-0.11328-0.21484-0.22266-0.31641-0.33594-8.168 3.6992-16.25 7.2617-23.949 10.52-0.09375 0.28125-0.19531 0.61328-0.29687 0.95313-0.074219 0.25-0.14453 0.46484-0.21875 0.73437-0.12891 0.45703-0.25391 0.98047-0.38672 1.4961-0.089844 0.35156-0.17578 0.67969-0.26172 1.0586-0.125 0.52734-0.23828 1.1094-0.35156 1.6758-0.085938 0.43359-0.17578 0.84766-0.25781 1.2969-0.10156 0.58594-0.1875 1.2109-0.27734 1.8242-0.066406 0.46875-0.14453 0.92969-0.19922 1.4062-0.074218 0.63281-0.10937 1.2812-0.16016 1.9258-0.035156 0.47266-0.082031 0.94531-0.10156 1.418-0.023438 0.66406 0.007812 1.3164 0.023437 1.9688 0.011719 0.44141-0.003906 0.89844 0.027344 1.332 0.050781 0.71094 0.17578 1.3828 0.28906 2.0547 0.0625 0.34375 0.078124 0.71484 0.15234 1.043 0.19531 0.85938 0.48438 1.6562 0.80859 2.4062 3.7891 6.5156 9.2539 7.8555 9.4844 7.9062 0.63281 0.125 1.1875 0.5 1.5352 1.0469 0.23047 0.36328 0.32031 0.78125 0.33594 1.207 0.25 0.17578 0.46484 0.39844 0.63672 0.65234 0.34766 0.54297 0.46484 1.2031 0.32031 1.8281l-8.4648 37.355c1.8633 13.027-2.3203 39.195-4.5781 53.332-0.42969 2.6758-0.78125 4.875-1.0586 6.7148-2.6641 9.7031-8.1562 13.648-11.68 15.203 24.141 35.562 62.23 16.824 69.773 12.613z"/>
</g>
</g>
</g>
</g>
<g clip-path="url(#a)">
<g clip-path="url(#s)">
<g clip-path="url(#r)">
<g clip-path="url(#q)">
<path d="m159.4 163.1c0.82812-1.0156 2.3359-1.1641 3.3555-0.32031 1.0195 0.83594 1.168 2.3398 0.33203 3.3633-2.1406 2.6055-7.9336 11.098-6.5273 15.797 0.16406 0.53906 0.64844 2.1758 3.7227 3.1367 1.8672 0.58203 2.5977 0.45312 2.6641 0.51172 0.20703-0.65234-0.39453-2.8125-1.2461-4.4375-0.60938-1.1484-0.1875-2.5742 0.9375-3.2031 0.015625-0.007813 0.03125-0.015625 0.046875-0.027344 1.1641-0.61719 2.6055-0.17188 3.2227 0.99219 0.80859 1.5156 3.2383 6.6875 0.74609 9.707-0.35156 0.42578-0.76562 0.76953-1.2383 1.0352-1.5508 0.86719-3.7383 0.86328-6.5391-0.015625-4.5469-1.4141-6.2539-4.2227-6.8828-6.3281-2.3867-7.9727 6.3984-18.98 7.4062-20.211z"/>
</g>
</g>
</g>
</g>
<g clip-path="url(#p)">
<g clip-path="url(#o)">
<g clip-path="url(#n)">
<g clip-path="url(#m)">
<path d="m240.33 142.63c1.0156 0.046875 2.8984 0.58984 4.0977 3.7188 0.69141 1.8047 1.0117 4.1328 0.90625 6.5664-0.19531 4.418-1.7383 8.0625-3.9336 9.2891-0.62109 0.34766-1.2812 0.50781-1.9531 0.47656-0.69922-0.03125-1.7305-0.29297-2.6992-1.3594-1.582-1.7305-2.457-5.1523-2.293-8.9219 0.25391-5.6836 2.8633-9.9102 5.875-9.7695zm0.125 17.887 0.011719 0.023437z"/>
</g>
</g>
</g>
</g>
<g clip-path="url(#l)">
<g clip-path="url(#k)">
<g clip-path="url(#j)">
<g clip-path="url(#h)">
<path d="m205.17 215.9c0.98438-0.88281 2.4961-0.76953 3.3672 0.22656 5.8789 6.7227 20.367 7.3945 20.512 7.4023 1.3125 0.054687 2.3438 1.1641 2.2969 2.4844-0.035156 0.85938-0.51953 1.6016-1.2188 1.9922-0.37109 0.20703-0.80078 0.31641-1.2539 0.30078-0.67969-0.023438-16.684-0.75391-23.918-9.0352-0.875-0.99219-0.77734-2.5039 0.21484-3.3711z"/>
</g>
</g>
</g>
</g>
</g>
</svg>
